HIERARCHY
ROOT Hips
{
  OFFSET -258.997 75.5694 1585.9
  CHANNELS 6 Xposition Yposition Zposition Zrotation Xrotation Yrotation
  JOINT Spine
  {
    OFFSET 0 8 0
    CHANNELS 6 Xposition Yposition Zposition Zrotation Xrotation Yrotation
    JOINT Spine1
    {
      OFFSET 0 8 0
      CHANNELS 6 Xposition Yposition Zposition Zrotation Xrotation Yrotation
      JOINT Spine2
      {
        OFFSET 0 8 0
        CHANNELS 6 Xposition Yposition Zposition Zrotation Xrotation Yrotation
        JOINT Spine3
        {
          OFFSET 0 8 0
          CHANNELS 6 Xposition Yposition Zposition Zrotation Xrotation Yrotation
          JOINT Neck
          {
            OFFSET 0 17 0
            CHANNELS 6 Xposition Yposition Zposition Zrotation Xrotation Yrotation
            JOINT Head
            {
              OFFSET 0 10.8 0
              CHANNELS 6 Xposition Yposition Zposition Zrotation Xrotation Yrotation
              End Site
              {
                OFFSET 0 20.25 0
              }
            }
          }
          JOINT LeftShoulder
          {
            OFFSET 5 17 0
            CHANNELS 6 Xposition Yposition Zposition Zrotation Xrotation Yrotation
            JOINT LeftShoulder2
            {
              OFFSET 6.45 0 0
              CHANNELS 6 Xposition Yposition Zposition Zrotation Xrotation Yrotation
              JOINT LeftArm
              {
                OFFSET 6.45 0 0
                CHANNELS 6 Xposition Yposition Zposition Zrotation Xrotation Yrotation
                JOINT LeftForeArm
                {
                  OFFSET 0 -32.4 -2
                  CHANNELS 6 Xposition Yposition Zposition Zrotation Xrotation Yrotation
                  JOINT LeftHand
                  {
                    OFFSET 0 -25.65 2
                    CHANNELS 6 Xposition Yposition Zposition Zrotation Xrotation Yrotation
                    JOINT LeftHandThumb1
                    {
                      OFFSET -0.5 -1.5 2.65
                      CHANNELS 6 Xposition Yposition Zposition Zrotation Xrotation Yrotation
                      JOINT LeftHandThumb2
                      {
                        OFFSET 0 -3.8 3.7
                        CHANNELS 6 Xposition Yposition Zposition Zrotation Xrotation Yrotation
                        JOINT LeftHandThumb3
                        {
                          OFFSET 0 -3 2.7
                          CHANNELS 6 Xposition Yposition Zposition Zrotation Xrotation Yrotation
                          End Site
                          {
                            OFFSET 0 -2.3 1.8
                          }
                        }
                      }
                    }
                    JOINT LeftHandIndex
                    {
                      OFFSET 0 -1.9 1.6
                      CHANNELS 6 Xposition Yposition Zposition Zrotation Xrotation Yrotation
                      JOINT LeftHandIndex1
                      {
                        OFFSET 0 -8.3 1.9
                        CHANNELS 6 Xposition Yposition Zposition Zrotation Xrotation Yrotation
                        JOINT LeftHandIndex2
                        {
                          OFFSET 0 -4.5 0
                          CHANNELS 6 Xposition Yposition Zposition Zrotation Xrotation Yrotation
                          JOINT LeftHandIndex3
                          {
                            OFFSET 0 -3.4 0
                            CHANNELS 6 Xposition Yposition Zposition Zrotation Xrotation Yrotation
                            End Site
                            {
                              OFFSET 0 -2.6 0
                            }
                          }
                        }
                      }
                    }
                    JOINT LeftHandMiddle
                    {
                      OFFSET -0.25 -2.2 0.4
                      CHANNELS 6 Xposition Yposition Zposition Zrotation Xrotation Yrotation
                      JOINT LeftHandMiddle1
                      {
                        OFFSET 0 -8.3 1
                        CHANNELS 6 Xposition Yposition Zposition Zrotation Xrotation Yrotation
                        JOINT LeftHandMiddle2
                        {
                          OFFSET 0 -4.65 0
                          CHANNELS 6 Xposition Yposition Zposition Zrotation Xrotation Yrotation
                          JOINT LeftHandMiddle3
                          {
                            OFFSET 0 -3.3 0
                            CHANNELS 6 Xposition Yposition Zposition Zrotation Xrotation Yrotation
                            End Site
                            {
                              OFFSET 0 -2.7 0
                            }
                          }
                        }
                      }
                    }
                    JOINT LeftHandRing
                    {
                      OFFSET -0.5 -2.15 -0.8
                      CHANNELS 6 Xposition Yposition Zposition Zrotation Xrotation Yrotation
                      JOINT LeftHandRing1
                      {
                        OFFSET 0 -7.75 -0.2
                        CHANNELS 6 Xposition Yposition Zposition Zrotation Xrotation Yrotation
                        JOINT LeftHandRing2
                        {
                          OFFSET 0 -3.8 0
                          CHANNELS 6 Xposition Yposition Zposition Zrotation Xrotation Yrotation
                          JOINT LeftHandRing3
                          {
                            OFFSET 0 -3.4 0
                            CHANNELS 6 Xposition Yposition Zposition Zrotation Xrotation Yrotation
                            End Site
                            {
                              OFFSET 0 -2.6 0
                            }
                          }
                        }
                      }
                    }
                    JOINT LeftHandPinky
                    {
                      OFFSET -0.75 -1.75 -1.85
                      CHANNELS 6 Xposition Yposition Zposition Zrotation Xrotation Yrotation
                      JOINT LeftHandPinky1
                      {
                        OFFSET 0 -7.15 -1
                        CHANNELS 6 Xposition Yposition Zposition Zrotation Xrotation Yrotation
                        JOINT LeftHandPinky2
                        {
                          OFFSET 0 -3 0
                          CHANNELS 6 Xposition Yposition Zposition Zrotation Xrotation Yrotation
                          JOINT LeftHandPinky3
                          {
                            OFFSET 0 -2.35 0
                            CHANNELS 6 Xposition Yposition Zposition Zrotation Xrotation Yrotation
                            End Site
                            {
                              OFFSET 0 -2.1 0
                            }
                          }
                        }
                      }
                    }
                  }
                }
              }
            }
          }
          JOINT RightShoulder
          {
            OFFSET -5 17 0
            CHANNELS 6 Xposition Yposition Zposition Zrotation Xrotation Yrotation
            JOINT RightShoulder2
            {
              OFFSET -6.45 0 0
              CHANNELS 6 Xposition Yposition Zposition Zrotation Xrotation Yrotation
              JOINT RightArm
              {
                OFFSET -6.45 0 0
                CHANNELS 6 Xposition Yposition Zposition Zrotation Xrotation Yrotation
                JOINT RightForeArm
                {
                  OFFSET 0 -32.4 -2
                  CHANNELS 6 Xposition Yposition Zposition Zrotation Xrotation Yrotation
                  JOINT RightHand
                  {
                    OFFSET 0 -25.65 2
                    CHANNELS 6 Xposition Yposition Zposition Zrotation Xrotation Yrotation
                    JOINT RightHandThumb1
                    {
                      OFFSET 0.5 -1.5 2.65
                      CHANNELS 6 Xposition Yposition Zposition Zrotation Xrotation Yrotation
                      JOINT RightHandThumb2
                      {
                        OFFSET 0 -3.8 3.7
                        CHANNELS 6 Xposition Yposition Zposition Zrotation Xrotation Yrotation
                        JOINT RightHandThumb3
                        {
                          OFFSET 0 -3 2.7
                          CHANNELS 6 Xposition Yposition Zposition Zrotation Xrotation Yrotation
                          End Site
                          {
                            OFFSET 0 -2.3 1.8
                          }
                        }
                      }
                    }
                    JOINT RightHandIndex
                    {
                      OFFSET 0 -1.9 1.6
                      CHANNELS 6 Xposition Yposition Zposition Zrotation Xrotation Yrotation
                      JOINT RightHandIndex1
                      {
                        OFFSET 0 -8.3 1.9
                        CHANNELS 6 Xposition Yposition Zposition Zrotation Xrotation Yrotation
                        JOINT RightHandIndex2
                        {
                          OFFSET 0 -4.5 0
                          CHANNELS 6 Xposition Yposition Zposition Zrotation Xrotation Yrotation
                          JOINT RightHandIndex3
                          {
                            OFFSET 0 -3.4 0
                            CHANNELS 6 Xposition Yposition Zposition Zrotation Xrotation Yrotation
                            End Site
                            {
                              OFFSET 0 -2.6 0
                            }
                          }
                        }
                      }
                    }
                    JOINT RightHandMiddle
                    {
                      OFFSET 0.25 -2.2 0.4
                      CHANNELS 6 Xposition Yposition Zposition Zrotation Xrotation Yrotation
                      JOINT RightHandMiddle1
                      {
                        OFFSET 0 -8.3 1
                        CHANNELS 6 Xposition Yposition Zposition Zrotation Xrotation Yrotation
                        JOINT RightHandMiddle2
                        {
                          OFFSET 0 -4.65 0
                          CHANNELS 6 Xposition Yposition Zposition Zrotation Xrotation Yrotation
                          JOINT RightHandMiddle3
                          {
                            OFFSET 0 -3.3 0
                            CHANNELS 6 Xposition Yposition Zposition Zrotation Xrotation Yrotation
                            End Site
                            {
                              OFFSET 0 -2.7 0
                            }
                          }
                        }
                      }
                    }
                    JOINT RightHandRing
                    {
                      OFFSET 0.5 -2.15 -0.8
                      CHANNELS 6 Xposition Yposition Zposition Zrotation Xrotation Yrotation
                      JOINT RightHandRing1
                      {
                        OFFSET 0 -7.75 -0.2
                        CHANNELS 6 Xposition Yposition Zposition Zrotation Xrotation Yrotation
                        JOINT RightHandRing2
                        {
                          OFFSET 0 -3.8 0
                          CHANNELS 6 Xposition Yposition Zposition Zrotation Xrotation Yrotation
                          JOINT RightHandRing3
                          {
                            OFFSET 0 -3.4 0
                            CHANNELS 6 Xposition Yposition Zposition Zrotation Xrotation Yrotation
                            End Site
                            {
                              OFFSET 0 -2.6 0
                            }
                          }
                        }
                      }
                    }
                    JOINT RightHandPinky
                    {
                      OFFSET 0.75 -1.75 -1.85
                      CHANNELS 6 Xposition Yposition Zposition Zrotation Xrotation Yrotation
                      JOINT RightHandPinky1
                      {
                        OFFSET 0 -7.15 -1
                        CHANNELS 6 Xposition Yposition Zposition Zrotation Xrotation Yrotation
                        JOINT RightHandPinky2
                        {
                          OFFSET 0 -3 0
                          CHANNELS 6 Xposition Yposition Zposition Zrotation Xrotation Yrotation
                          JOINT RightHandPinky3
                          {
                            OFFSET 0 -2.35 0
                            CHANNELS 6 Xposition Yposition Zposition Zrotation Xrotation Yrotation
                            End Site
                            {
                              OFFSET 0 -2.1 0
                            }
                          }
                        }
                      }
                    }
                  }
                }
              }
            }
          }
        }
      }
    }
  }
  JOINT LeftUpLeg
  {
    OFFSET 8 0 0
    CHANNELS 6 Xposition Yposition Zposition Zrotation Xrotation Yrotation
    JOINT LeftLeg
    {
      OFFSET 0 -45 -1
      CHANNELS 6 Xposition Yposition Zposition Zrotation Xrotation Yrotation
      JOINT LeftFoot
      {
        OFFSET 0 -41 -2
        CHANNELS 6 Xposition Yposition Zposition Zrotation Xrotation Yrotation
        JOINT LeftToeBase
        {
          OFFSET 0 -7.5 12.5
          CHANNELS 6 Xposition Yposition Zposition Zrotation Xrotation Yrotation
          JOINT LeftFootToe
          {
            OFFSET 0 0 4
            CHANNELS 6 Xposition Yposition Zposition Zrotation Xrotation Yrotation
            End Site
            {
              OFFSET 0 0 0
            }
          }
        }
      }
    }
  }
  JOINT RightUpLeg
  {
    OFFSET -8 0 0
    CHANNELS 6 Xposition Yposition Zposition Zrotation Xrotation Yrotation
    JOINT RightLeg
    {
      OFFSET 0 -45 -1
      CHANNELS 6 Xposition Yposition Zposition Zrotation Xrotation Yrotation
      JOINT RightFoot
      {
        OFFSET 0 -41 -2
        CHANNELS 6 Xposition Yposition Zposition Zrotation Xrotation Yrotation
        JOINT RightToeBase
        {
          OFFSET 0 -7.5 12.5
          CHANNELS 6 Xposition Yposition Zposition Zrotation Xrotation Yrotation
          JOINT RightFootToe
          {
            OFFSET 0 0 4
            CHANNELS 6 Xposition Yposition Zposition Zrotation Xrotation Yrotation
            End Site
            {
              OFFSET 0 0 0
            }
          }
        }
      }
    }
  }
}
MOTION
Frames:	3
Frame Time:	0.0111111
-259.341 74.443 1590.57 -9.15608 6.89208 -174.647 1.13687e-13 8 -2.27374e-13 14.2061 16.1021 -19.0846 -5.68434e-14 8 -2.27374e-13 1.64983 12.0422 0.24445 0 8 2.27374e-13 0.824427 6.03744 0.165753 5.68434e-14 8 4.54747e-13 0.811328 6.00343 0.166324 5.68434e-14 17 -2.27374e-13 6.75552 3.0129 -1.23568 -8.52651e-14 10.8 0 15.96 6.78197 -3.44344 5 17 -2.27374e-13 -3.11004 -0.0762147 6.94369 6.45 2.27374e-13 4.54747e-13 -3.21 1.00552 5.15459 6.45 0 2.27374e-13 49.661 0.0413841 0.498915 0 -32.4 -2 23.1739 -80.2996 8.05839 -1.13687e-13 -25.65 2 -18.3396 -1.80506 -20.3843 -0.5 -1.5 2.65 -33.0821 -36.5699 109.63 1.13687e-13 -3.8 3.7 -0.238525 33.8235 -0.0037472 0 -3 2.7 -0.0648573 60.9882 0.0505392 0 -1.9 1.6 3.18055e-15 -9.54166e-15 -2.38542e-15 4.54747e-13 -8.3 1.9 -39.5684 9.84101 4.27092 0 -4.5 0 -82.6339 -0.0023383 0.00842705 1.42109e-14 -3.4 0 -70.8028 -0.00225349 0.0015684 -0.25 -2.2 0.4 3.18055e-15 -9.54166e-15 -2.38542e-15 -2.27374e-13 -8.3 1 -33.5392 9.62733 4.16744 2.27374e-13 -4.65 0 -80.3786 0.00755855 -0.00433683 5.68434e-14 -3.3 0 -90.0002 -8.34896e-15 -2.22639e-14 -0.5 -2.15 -0.8 3.18055e-15 -9.54166e-15 -2.38542e-15 0 -7.75 -0.2 -54.3804 10.5513 11.4061 0 -3.8 1.13687e-13 -1.77346 -7.95139e-16 -0.00201202 2.27374e-13 -3.4 0 -90.0002 -8.74653e-14 5.725e-14 -0.75 -1.75 -1.85 3.18055e-15 -9.54166e-15 -2.38542e-15 0 -7.15 -1 -6.98906 21.5145 2.32014 -2.27374e-13 -3 2.27374e-13 -49.4058 -0.00287834 -0.00226161 0 -2.35 0 -90.0002 -4.45278e-14 6.91771e-14 -5 17 -2.27374e-13 7.27306 -1.42649 -4.48652 -6.45 1.13687e-13 0 -2.27215 0.451831 -2.44223 -6.45 0 -2.27374e-13 -56.0074 -42.2592 13.5076 0 -32.4 -2 -143.548 -62.3769 -145.743 -5.68434e-14 -25.65 2 -30.2142 2.22698 29.7399 0.5 -1.5 2.65 23.05 38.8151 -9.4268 -2.84217e-14 -3.8 3.7 2.50589 -27.0392 -0.59292 -1.42109e-14 -3 2.7 0.434993 56.1428 -0.354473 0 -1.9 1.6 -3.18055e-15 -3.18055e-15 -1.59028e-15 -1.13687e-13 -8.3 1.9 26.0628 20.01 -5.07271 -2.84217e-14 -4.5 -2.27374e-13 8.5356e-14 2.44623e-08 -0.000188515 -7.10543e-14 -3.4 2.84217e-14 6.42091e-14 2.43581e-08 -0.00014519 0.25 -2.2 0.4 -3.18055e-15 -3.18055e-15 -1.59028e-15 -1.13687e-13 -8.3 1 32.9699 8.17307 -4.334 5.68434e-14 -4.65 5.68434e-14 1.59028e-15 -4.77083e-15 -7.45443e-15 0 -3.3 -2.84217e-13 -1.59028e-15 -2.38542e-15 1.11319e-14 0.5 -2.15 -0.8 -3.18055e-15 -3.18055e-15 -1.59028e-15 1.13687e-13 -7.75 -0.2 39.9795 1.09452 -5.13249 1.13687e-13 -3.8 0 5.101 -0.000133495 -0.00501062 0 -3.4 0 4.75394 -0.00186035 -0.00395032 0.75 -1.75 -1.85 -3.18055e-15 -3.18055e-15 -1.59028e-15 0 -7.15 -1 53.9681 -23.6321 1.10199 1.13687e-13 -3 -2.27374e-13 1.51451e-08 -0.00071709 0.0012101 0 -2.35 0 1.24308e-08 -0.000704921 0.00101037 8 -2.84217e-14 -2.27374e-13 -18.1352 -47.6681 -16.1802 0 -45 -1 -0.151563 51.0078 0.364476 0 -41 -2 -2.25314 2.25565 23.4656 1.13687e-13 -7.5 12.5 1.98785e-16 -7.95139e-16 -3.18055e-15 0 0 4 -0.69191 -2.7656 41.2964 -8 -2.84217e-14 0 -15.6841 -52.231 -9.44698 2.84217e-14 -45 -1 -9.9828 69.2122 15.2754 1.13687e-13 -41 -2 -3.30718 1.45453 23.1652 1.13687e-13 -7.5 12.5 1.77347e-15 -11.9432 1.62546e-14 -1.13687e-13 0 4 -1.34204 12.9356 24.2995 
-259.339 74.4408 1590.57 -9.14824 6.89784 -174.647 0 8 0 14.1868 16.0946 -19.0831 0 8 0 1.64528 12.0359 0.244273 -5.68434e-14 8 2.27374e-13 0.824204 6.03319 0.16536 0 8 2.27374e-13 0.810961 6.00317 0.165971 1.13687e-13 17 -2.27374e-13 6.73733 3.02199 -1.22345 -2.84217e-14 10.8 2.27374e-13 15.9167 6.80616 -3.41521 5 17 -2.27374e-13 -3.13903 -0.101877 6.95239 6.45 1.13687e-13 2.27374e-13 -3.1962 0.995957 5.15152 6.45 1.13687e-13 0 49.7351 0.0756942 0.56706 5.68434e-14 -32.4 -2 22.471 -80.3523 7.44399 -1.13687e-13 -25.65 2 -18.2716 -1.83937 -20.3827 -0.5 -1.5 2.65 -33.1516 -36.6034 109.598 1.13687e-13 -3.8 3.7 -0.243771 33.7834 -0.00375326 1.13687e-13 -3 2.7 -0.0639338 60.5455 0.0497413 0 -1.9 1.6 3.18055e-15 -2.38542e-15 -7.15625e-15 2.27374e-13 -8.3 1.9 -39.6051 9.85469 4.2805 0 -4.5 0 -82.5734 -0.00232816 0.00841893 -2.84217e-14 -3.4 0 -70.6834 -0.00224391 0.0015772 -0.25 -2.2 0.4 3.18055e-15 -2.38542e-15 -7.15625e-15 0 -8.3 1 -33.5655 9.63258 4.17209 0 -4.65 0 -80.353 0.00757024 -0.00431604 0 -3.3 0 -90.0002 2.46493e-14 -2.38542e-14 -0.5 -2.15 -0.8 3.18055e-15 -2.38542e-15 -7.15625e-15 2.27374e-13 -7.75 -0.2 -54.3964 10.5468 11.406 2.27374e-13 -3.8 0 -1.77346 -9.54166e-15 -0.00200909 -2.27374e-13 -3.4 -1.13687e-13 -90.0002 2.22639e-14 -4.37326e-14 -0.75 -1.75 -1.85 3.18055e-15 -2.38542e-15 -7.15625e-15 -2.27374e-13 -7.15 -1 -6.98329 21.5068 2.31776 -2.27374e-13 -3 2.27374e-13 -49.4586 -0.00286314 -0.0022775 -2.27374e-13 -2.35 0 -90.0002 7.95139e-14 -4.13472e-14 -5 17 -2.27374e-13 7.24604 -1.42274 -4.47758 -6.45 0 0 -2.27738 0.456903 -2.429 -6.45 0 0 -55.7592 -42.2153 13.5844 0 -32.4 -2 -144.068 -62.2374 -146.236 -5.68434e-14 -25.65 2 -30.4687 2.30309 29.7298 0.5 -1.5 2.65 23.0831 38.7329 -9.42104 2.84217e-14 -3.8 3.7 2.50849 -27.2068 -0.593761 0 -3 2.7 0.442418 56.8039 -0.360616 -1.13687e-13 -1.9 1.6 -3.18055e-15 4.77083e-15 -1.59028e-15 -1.13687e-13 -8.3 1.9 26.5571 20.2293 -5.23036 -1.42109e-14 -4.5 -2.27374e-13 8.66937e-14 2.44242e-08 -0.000189265 -7.10543e-14 -3.4 2.84217e-14 6.29118e-14 2.43202e-08 -0.000145813 0.25 -2.2 0.4 -3.18055e-15 4.77083e-15 -1.59028e-15 0 -8.3 1 33.4854 8.37752 -4.39631 0 -4.65 0 1.59028e-15 -5.1684e-15 9.93923e-16 0 -3.3 -2.27374e-13 -1.59028e-15 -3.57812e-15 3.47873e-15 0.5 -2.15 -0.8 -3.18055e-15 4.77083e-15 -1.59028e-15 0 -7.75 -0.2 40.3422 1.78377 -5.24799 0 -3.8 0 5.42558 -0.000129857 -0.00500585 2.27374e-13 -3.4 0 5.03923 -0.00187098 -0.00394827 0.75 -1.75 -1.85 -3.18055e-15 4.77083e-15 -1.59028e-15 0 -7.15 -1 54.4958 -23.3467 1.16632 0 -3 -2.27374e-13 1.51451e-08 -0.00071709 0.0012101 1.13687e-13 -2.35 1.13687e-13 1.24308e-08 -0.000704921 0.00101037 8 0 -2.27374e-13 -18.1172 -47.6674 -16.1866 -2.84217e-14 -45 -1 -0.161478 51.0088 0.377552 0 -41 -2 -2.26187 2.25614 23.4642 0 -7.5 12.5 -9.93923e-17 -1.59028e-15 3.18055e-15 0 0 4 -0.695421 -2.76936 41.2963 -8 0 2.27374e-13 -15.6672 -52.2315 -9.43482 -2.84217e-14 -45 -1 -9.98572 69.2133 15.2794 1.13687e-13 -41 -2 -3.30636 1.45246 23.171 0 -7.5 12.5 -9.17501e-16 -11.9436 3.25093e-15 -1.13687e-13 0 4 -1.34748 12.9354 24.2998 
-259.337 74.4386 1590.57 -9.13738 6.90417 -174.65 1.13687e-13 8 -2.27374e-13 14.1656 16.0875 -19.0816 0 8 0 1.63953 12.0299 0.244178 0 8 2.27374e-13 0.823966 6.03054 0.164977 0 8 2.27374e-13 0.810578 6.00292 0.165641 5.68434e-14 17 0 6.72102 3.03013 -1.21281 0 10.8 4.54747e-13 15.878 6.82773 -3.39063 5 17 -2.27374e-13 -3.16329 -0.119914 6.95122 6.45 1.13687e-13 0 -3.18462 0.986276 5.14841 6.45 1.13687e-13 2.27374e-13 49.8069 0.122253 0.659614 5.68434e-14 -32.4 -2 21.756 -80.4211 6.81518 -1.13687e-13 -25.65 2 -18.2151 -1.86638 -20.3733 -0.5 -1.5 2.65 -33.216 -36.6228 109.563 1.13687e-13 -3.8 3.7 -0.249765 33.7474 -0.00375946 0 -3 2.7 -0.0629965 60.0801 0.0489344 0 -1.9 1.6 -3.18055e-15 1.59028e-15 -7.95139e-15 2.27374e-13 -8.3 1.9 -39.672 9.88273 4.29927 0 -4.5 0 -82.4932 -0.00231802 0.00841076 1.42109e-14 -3.4 0 -70.5254 -0.00223435 0.00158596 -0.25 -2.2 0.4 -3.18055e-15 1.59028e-15 -7.95139e-15 -4.54747e-13 -8.3 1 -33.6069 9.64673 4.18116 -2.27374e-13 -4.65 -1.13687e-13 -80.3232 0.00758187 -0.00429528 0 -3.3 0 -90.0002 5.24792e-14 -5.56597e-14 -0.5 -2.15 -0.8 -3.18055e-15 1.59028e-15 -7.95139e-15 2.27374e-13 -7.75 -0.2 -54.422 10.5383 11.4058 2.27374e-13 -3.8 0 -1.77346 -5.56597e-15 -0.00200615 0 -3.4 0 -90.0002 1.59028e-14 -2.70347e-14 -0.75 -1.75 -1.85 -3.18055e-15 1.59028e-15 -7.95139e-15 0 -7.15 -1 -6.96943 21.4884 2.31211 0 -3 2.27374e-13 -49.4964 -0.00284798 -0.00229337 0 -2.35 0 -90.0002 9.85972e-14 -5.96354e-14 -5 17 0 7.22571 -1.42055 -4.47717 -6.45 0 0 -2.28139 0.46002 -2.41808 -6.45 0 0 -55.4906 -42.1836 13.6957 1.13687e-13 -32.4 -2 -144.55 -62.1209 -146.68 -1.13687e-13 -25.65 2 -30.7383 2.3552 29.7656 0.5 -1.5 2.65 23.1269 38.6433 -9.44884 8.52651e-14 -3.8 3.7 2.51154 -27.3718 -0.594596 0 -3 2.7 0.449506 57.4144 -0.366522 -1.13687e-13 -1.9 1.6 -3.18055e-15 3.18055e-15 -3.97569e-15 0 -8.3 1.9 27.0555 20.4317 -5.38658 -2.84217e-14 -4.5 -2.55795e-13 8.48806e-14 2.4386e-08 -0.000190016 -5.68434e-14 -3.4 -2.84217e-14 6.20797e-14 2.42821e-08 -0.000146438 0.25 -2.2 0.4 -3.18055e-15 3.18055e-15 -3.97569e-15 -1.13687e-13 -8.3 1 33.9814 8.57716 -4.46468 -1.13687e-13 -4.65 0 -1.59028e-15 -6.36111e-15 1.49089e-15 -5.68434e-14 -3.3 -2.27374e-13 -1.59028e-15 -1.59028e-15 1.35174e-14 0.5 -2.15 -0.8 -3.18055e-15 3.18055e-15 -3.97569e-15 -1.13687e-13 -7.75 -0.2 40.6697 2.39412 -5.35703 0 -3.8 -5.68434e-14 5.79148 -0.000126194 -0.00500108 0 -3.4 -5.68434e-14 5.36285 -0.0018816 -0.00394624 0.75 -1.75 -1.85 -3.18055e-15 3.18055e-15 -3.97569e-15 0 -7.15 -1 54.9633 -23.039 1.20999 1.13687e-13 -3 -2.27374e-13 1.51451e-08 -0.00071709 0.0012101 1.13687e-13 -2.35 0 1.24308e-08 -0.000704921 0.00101037 8 0 -2.27374e-13 -18.0955 -47.6666 -16.1954 0 -45 -1 -0.172383 51.0101 0.391752 0 -41 -2 -2.27206 2.25605 23.4636 1.13687e-13 -7.5 12.5 1.76556e-31 -1.59028e-15 6.36111e-15 -1.13687e-13 -1.42109e-14 4 -0.699128 -2.77101 41.2962 -8 0 0 -15.6437 -52.2324 -9.41806 -2.84217e-14 -45 -1 -9.98829 69.2142 15.2833 1.13687e-13 -41 -2 -3.30556 1.45033 23.1784 0 -7.5 12.5 2.01782e-15 -11.9407 9.75269e-15 -1.13687e-13 5.55112e-17 4 -1.35223 12.9319 24.2998 
